<?xml version="1.0" encoding="UTF-8"?>
<svg id="_图层_1" data-name="图层 1" xmlns="http://www.w3.org/2000/svg" viewBox="0 0 1093.42 312.34">
  <defs>
    <style>
      .cls-1, .cls-2 {
        fill: #1c1c1d;
      }

      .cls-2 {
        fill-rule: evenodd;
      }
    </style>
  </defs>
  <path class="cls-2" d="M194.27,214.09c-13.24,15.53-30.69,26.99-54.23,26.99h-57.54v-22.7c9.64,0,17.18-4.36,24.17-12.53,7.29-8.53,13.21-20.35,19.14-33.57,1.04-2.32,2.09-4.69,3.15-7.1,4.68-10.63,9.61-21.82,15.18-30.62,6.74-10.66,16.84-21.79,32.46-21.79s25.76,11.07,32.59,21.72c.51.8,1.02,1.61,1.52,2.45,5.89-13.36,11.98-26.74,18.76-37.5,9.18-14.56,22.07-28.3,41.4-28.3s32.28,13.69,41.59,28.24c7.75,12.11,14.63,27.53,21.32,42.52,1.43,3.21,2.85,6.39,4.27,9.53,8.36,18.45,16.87,35.51,27.42,47.96,10.27,12.13,21.68,18.99,36.22,18.99v22.7h-130.99c-17.89,0-31.1-8.93-40.94-20.5-7.65-9.01-13.71-20.13-18.9-30.97-4.9,8.78-10.35,17.16-16.59,24.48ZM198.85,163.29c-6.59,13.82-13.56,26.35-21.85,36.07-10.3,12.08-21.92,19.02-36.96,19.02h-14.28c8.71-10.93,15.23-24.48,20.76-36.8,1.23-2.74,2.4-5.4,3.55-7.98,4.64-10.51,8.69-19.67,13.26-26.9,5.78-9.14,9.96-11.22,13.27-11.22s7.61,2.13,13.49,11.28c3.04,4.73,5.86,10.3,8.77,16.53ZM223.83,163.37c.32.71.64,1.42.95,2.13,1.02,2.28,2.03,4.53,3.03,6.73,6.02,13.24,11.98,25.1,19.25,33.65,6.99,8.23,14.38,12.5,23.63,12.5h81.32c-1.33-1.4-2.62-2.84-3.87-4.32-12.83-15.15-22.45-34.9-30.77-53.26-1.58-3.49-3.12-6.93-4.62-10.28-6.67-14.94-12.67-28.36-19.42-38.9-8.36-13.06-15.44-17.77-22.47-17.77s-13.96,4.66-22.19,17.71c-6.55,10.39-12.35,23.56-18.81,38.25-1.57,3.57-3.18,7.22-4.85,10.95-.39.87-.78,1.74-1.18,2.62Z"/>
  <path class="cls-1" d="M484.18,82.5h53.93c10.45,0,19.09,1.75,25.94,5.2,6.85,3.4,12,8.02,15.4,13.89,3.4,5.78,5.1,12.34,5.1,19.63,0,6.12-1.12,11.32-3.4,15.55-2.24,4.18-5.3,7.53-9.04,10.06-3.74,2.48-7.87,4.32-12.39,5.44v1.46c4.91.24,9.67,1.8,14.28,4.76,4.71,2.87,8.6,7,11.66,12.29,3.06,5.34,4.61,11.81,4.61,19.43s-1.75,14.28-5.34,20.26c-3.5,5.93-8.89,10.69-16.23,14.19-7.34,3.45-16.71,5.2-28.13,5.2h-56.41V82.5ZM506.38,210.66h32.06c10.64,0,18.27-2.04,22.88-6.17,4.62-4.13,6.9-9.28,6.9-15.45,0-4.66-1.17-8.89-3.55-12.78-2.33-3.89-5.68-7-10.06-9.28-4.32-2.28-9.43-3.45-15.4-3.45h-32.84v47.13ZM506.38,146.19h29.78c5,0,9.47-.97,13.46-2.87,4.03-1.89,7.19-4.62,9.57-8.06,2.38-3.5,3.59-7.63,3.59-12.39,0-6.07-2.14-11.17-6.41-15.3-4.27-4.13-10.78-6.17-19.63-6.17h-30.36v44.79Z"/>
  <path class="cls-1" d="M639.55,232.18c-7,0-13.31-1.31-19-3.89-5.64-2.62-10.15-6.46-13.46-11.42-3.26-5-4.91-11.08-4.91-18.32,0-6.22,1.21-11.37,3.59-15.4,2.38-4.03,5.64-7.19,9.72-9.57,4.08-2.33,8.65-4.13,13.65-5.3,5.05-1.21,10.15-2.09,15.4-2.72,6.61-.78,12-1.41,16.08-1.85,4.13-.53,7.1-1.36,8.99-2.53,1.85-1.17,2.82-3.01,2.82-5.59v-.49c0-6.27-1.75-11.13-5.34-14.57-3.5-3.45-8.74-5.2-15.69-5.2s-12.92,1.6-17.1,4.81c-4.13,3.16-7,6.7-8.55,10.59l-20.21-4.62c2.38-6.7,5.88-12.15,10.49-16.23,4.67-4.18,10.01-7.19,16.03-9.04,6.02-1.89,12.39-2.87,19.04-2.87,4.42,0,9.09.53,14.04,1.6,5,1.02,9.62,2.87,13.94,5.59,4.37,2.72,7.92,6.66,10.69,11.71,2.77,5.05,4.18,11.56,4.18,19.63v73.31h-20.99v-15.21h-.88c-1.41,2.77-3.5,5.49-6.27,8.21-2.77,2.67-6.37,4.91-10.69,6.7-4.28,1.75-9.47,2.62-15.6,2.62ZM644.26,214.93c5.93,0,11.03-1.17,15.25-3.55,4.28-2.33,7.48-5.39,9.72-9.18,2.23-3.84,3.4-7.92,3.4-12.29v-14.24c-.78.78-2.23,1.51-4.47,2.14-2.14.63-4.62,1.17-7.39,1.65-2.77.44-5.49.83-8.11,1.21-2.63.34-4.86.63-6.61.87-4.18.53-7.97,1.41-11.42,2.67-3.4,1.26-6.12,3.06-8.21,5.39-1.99,2.28-3.01,5.34-3.01,9.18,0,5.34,1.94,9.33,5.88,12.1,3.84,2.67,8.84,4.03,14.96,4.03Z"/>
  <path class="cls-1" d="M1008.79,146.28l-19.48,3.45c-.82-2.48-2.09-4.86-3.88-7.14-1.75-2.23-4.08-4.08-7.04-5.54-2.96-1.46-6.71-2.14-11.13-2.14-6.07,0-11.17,1.36-15.25,4.08-4.08,2.67-6.12,6.17-6.12,10.45,0,3.69,1.36,6.66,4.08,8.89,2.72,2.23,7.14,4.08,13.21,5.54l17.54,4.03c10.16,2.33,17.73,5.98,22.74,10.83,5,4.91,7.48,11.22,7.48,19.04,0,6.61-1.9,12.49-5.73,17.68-3.79,5.15-9.08,9.13-15.89,12.1-6.75,2.91-14.57,4.37-23.51,4.37-12.39,0-22.44-2.62-30.27-7.92-7.82-5.34-12.58-12.87-14.38-22.64l20.79-3.16c1.31,5.39,3.94,9.52,7.97,12.29,4.03,2.72,9.28,4.08,15.74,4.08,7.04,0,12.68-1.46,16.91-4.37,4.23-2.96,6.32-6.61,6.32-10.83,0-3.45-1.31-6.36-3.89-8.7-2.53-2.33-6.46-4.13-11.71-5.3l-18.7-4.08c-10.3-2.33-17.93-6.07-22.88-11.22-4.91-5.15-7.33-11.61-7.33-19.48,0-6.51,1.8-12.24,5.44-17.1,3.64-4.91,8.7-8.7,15.11-11.42,6.41-2.77,13.8-4.18,22.06-4.18,11.95,0,21.33,2.57,28.18,7.77,6.9,5.05,11.42,11.95,13.65,20.6Z"/>
  <path class="cls-1" d="M909.68,173.35c0-10.01-1.36-18.51-4.03-25.51-2.67-7.04-6.37-12.78-10.98-17.2-4.67-4.42-9.91-7.63-15.74-9.72-5.83-2.09-11.9-3.11-18.12-3.11-10.25,0-19.24,2.43-26.87,7.24-7.63,4.86-13.55,11.56-17.83,20.21-4.23,8.65-6.32,18.61-6.32,29.93s2.09,21.43,6.32,29.98c4.27,8.5,10.3,15.06,18.12,19.77,7.87,4.66,17.25,7,28.13,7,8.06,0,15.21-1.21,21.47-3.64,6.32-2.48,11.56-5.98,15.74-10.45,4.23-4.52,7.14-9.77,8.79-15.74l-20.36-3.64c-1.31,3.45-3.16,6.36-5.64,8.7-2.43,2.33-5.34,4.13-8.7,5.3-3.35,1.17-7.04,1.75-11.13,1.75-6.27,0-11.76-1.36-16.47-4.03-4.71-2.72-8.36-6.7-10.98-11.85-2.43-4.81-3.69-10.59-3.89-17.34h78.51v-7.63h-.05ZM831.22,164.89c.24-4.76,1.46-9.18,3.55-13.31,2.43-4.76,5.88-8.6,10.35-11.51,4.52-2.96,9.76-4.47,15.84-4.47,5.54,0,10.4,1.26,14.53,3.84,4.18,2.53,7.39,6.02,9.72,10.4,2.28,4.37,3.45,9.38,3.45,15.01h-57.43v.05Z"/>
  <path class="cls-1" d="M714.23,271.14v-18.61h11.66c3.06-.15,5.73-1.31,8.06-3.45,2.38-2.14,4.52-5.68,6.31-10.59l2.67-7.34-40.37-111.84h23.03l27.98,85.7h1.17l27.98-85.7h23.08l-45.57,125.15c-2.09,5.73-4.81,10.64-8.06,14.57-3.25,4.03-7.14,7.04-11.66,9.04-4.23,1.89-9.08,2.92-14.62,3.01h-11.66v.05Z"/>
</svg>