<svg width="929" height="201" viewBox="0 0 929 201" fill="none" xmlns="http://www.w3.org/2000/svg">
<g clip-path="url(#clip0_5_2)">
<path fill-rule="evenodd" clip-rule="evenodd" d="M112.27 143.09C99.03 158.62 81.58 170.08 58.04 170.08H0.5V147.38C10.14 147.38 17.68 143.02 24.67 134.85C31.96 126.32 37.88 114.5 43.81 101.28C44.85 98.96 45.9 96.59 46.96 94.18C51.64 83.55 56.57 72.36 62.14 63.56C68.88 52.9 78.98 41.77 94.6 41.77C110.22 41.77 120.36 52.84 127.19 63.49C127.7 64.29 128.21 65.1 128.71 65.94C134.6 52.58 140.69 39.2 147.47 28.44C156.65 13.88 169.54 0.140015 188.87 0.140015C208.2 0.140015 221.15 13.83 230.46 28.38C238.21 40.49 245.09 55.91 251.78 70.9C253.21 74.11 254.63 77.29 256.05 80.43C264.41 98.88 272.92 115.94 283.47 128.39C293.74 140.52 305.15 147.38 319.69 147.38V170.08H188.7C170.81 170.08 157.6 161.15 147.76 149.58C140.11 140.57 134.05 129.45 128.86 118.61C123.96 127.39 118.51 135.77 112.27 143.09ZM116.85 92.29C110.26 106.11 103.29 118.64 95 128.36C84.7 140.44 73.08 147.38 58.04 147.38H43.76C52.47 136.45 58.99 122.9 64.52 110.58C65.75 107.84 66.92 105.18 68.07 102.6C72.71 92.09 76.76 82.93 81.33 75.7C87.11 66.56 91.29 64.48 94.6 64.48C97.91 64.48 102.21 66.61 108.09 75.76C111.13 80.49 113.95 86.06 116.86 92.29H116.85ZM141.83 92.37C142.15 93.08 142.47 93.79 142.78 94.5C143.8 96.78 144.81 99.03 145.81 101.23C151.83 114.47 157.79 126.33 165.06 134.88C172.05 143.11 179.44 147.38 188.69 147.38H270.01C268.68 145.98 267.39 144.54 266.14 143.06C253.31 127.91 243.69 108.16 235.37 89.8C233.79 86.31 232.25 82.87 230.75 79.52C224.08 64.58 218.08 51.16 211.33 40.62C202.97 27.56 195.89 22.85 188.86 22.85C181.83 22.85 174.9 27.51 166.67 40.56C160.12 50.95 154.32 64.12 147.86 78.81C146.29 82.38 144.68 86.03 143.01 89.76C142.62 90.63 142.23 91.5 141.83 92.38V92.37Z" fill="#1C1C1D"/>
<path d="M402.18 11.5H456.11C466.56 11.5 475.2 13.25 482.05 16.7C488.9 20.1 494.05 24.72 497.45 30.59C500.85 36.37 502.55 42.93 502.55 50.22C502.55 56.34 501.43 61.54 499.15 65.77C496.91 69.95 493.85 73.3 490.11 75.83C486.37 78.31 482.24 80.15 477.72 81.27V82.73C482.63 82.97 487.39 84.53 492 87.49C496.71 90.36 500.6 94.49 503.66 99.78C506.72 105.12 508.27 111.59 508.27 119.21C508.27 126.83 506.52 133.49 502.93 139.47C499.43 145.4 494.04 150.16 486.7 153.66C479.36 157.11 469.99 158.86 458.57 158.86H402.16V11.5H402.18ZM424.38 139.66H456.44C467.08 139.66 474.71 137.62 479.32 133.49C483.94 129.36 486.22 124.21 486.22 118.04C486.22 113.38 485.05 109.15 482.67 105.26C480.34 101.37 476.99 98.26 472.61 95.98C468.29 93.7 463.18 92.53 457.21 92.53H424.37V139.66H424.38ZM424.38 75.19H454.16C459.16 75.19 463.63 74.22 467.62 72.32C471.65 70.43 474.81 67.7 477.19 64.26C479.57 60.76 480.78 56.63 480.78 51.87C480.78 45.8 478.64 40.7 474.37 36.57C470.1 32.44 463.59 30.4 454.74 30.4H424.38V75.19Z" fill="#1C1C1D"/>
<path d="M557.55 161.18C550.55 161.18 544.24 159.87 538.55 157.29C532.91 154.67 528.4 150.83 525.09 145.87C521.83 140.87 520.18 134.79 520.18 127.55C520.18 121.33 521.39 116.18 523.77 112.15C526.15 108.12 529.41 104.96 533.49 102.58C537.57 100.25 542.14 98.45 547.14 97.28C552.19 96.07 557.29 95.19 562.54 94.56C569.15 93.78 574.54 93.15 578.62 92.71C582.75 92.18 585.72 91.35 587.61 90.18C589.46 89.01 590.43 87.17 590.43 84.59V84.1C590.43 77.83 588.68 72.97 585.09 69.53C581.59 66.08 576.35 64.33 569.4 64.33C562.45 64.33 556.48 65.93 552.3 69.14C548.17 72.3 545.3 75.84 543.75 79.73L523.54 75.11C525.92 68.41 529.42 62.96 534.03 58.88C538.7 54.7 544.04 51.69 550.06 49.84C556.08 47.95 562.45 46.97 569.1 46.97C573.52 46.97 578.19 47.5 583.14 48.57C588.14 49.59 592.76 51.44 597.08 54.16C601.45 56.88 605 60.82 607.77 65.87C610.54 70.92 611.95 77.43 611.95 85.5V158.81H590.96V143.6H590.08C588.67 146.37 586.58 149.09 583.81 151.81C581.04 154.48 577.44 156.72 573.12 158.51C568.84 160.26 563.65 161.13 557.52 161.13L557.55 161.18ZM562.26 143.93C568.19 143.93 573.29 142.76 577.51 140.38C581.79 138.05 584.99 134.99 587.23 131.2C589.46 127.36 590.63 123.28 590.63 118.91V104.67C589.85 105.45 588.4 106.18 586.16 106.81C584.02 107.44 581.54 107.98 578.77 108.46C576 108.9 573.28 109.29 570.66 109.67C568.03 110.01 565.8 110.3 564.05 110.54C559.87 111.07 556.08 111.95 552.63 113.21C549.23 114.47 546.51 116.27 544.42 118.6C542.43 120.88 541.41 123.94 541.41 127.78C541.41 133.12 543.35 137.11 547.29 139.88C551.13 142.55 556.13 143.91 562.25 143.91L562.26 143.93Z" fill="#1C1C1D"/>
<path d="M926.79 75.28L907.31 78.73C906.49 76.25 905.22 73.87 903.43 71.59C901.68 69.36 899.35 67.51 896.39 66.05C893.43 64.59 889.68 63.91 885.26 63.91C879.19 63.91 874.09 65.27 870.01 67.99C865.93 70.66 863.89 74.16 863.89 78.44C863.89 82.13 865.25 85.1 867.97 87.33C870.69 89.56 875.11 91.41 881.18 92.87L898.72 96.9C908.88 99.23 916.45 102.88 921.46 107.73C926.46 112.64 928.94 118.95 928.94 126.77C928.94 133.38 927.04 139.26 923.21 144.45C919.42 149.6 914.13 153.58 907.32 156.55C900.57 159.46 892.75 160.92 883.81 160.92C871.42 160.92 861.37 158.3 853.54 153C845.72 147.66 840.96 140.13 839.16 130.36L859.95 127.2C861.26 132.59 863.89 136.72 867.92 139.49C871.95 142.21 877.2 143.57 883.66 143.57C890.7 143.57 896.34 142.11 900.57 139.2C904.8 136.24 906.89 132.59 906.89 128.37C906.89 124.92 905.58 122.01 903 119.67C900.47 117.34 896.54 115.54 891.29 114.37L872.59 110.29C862.29 107.96 854.66 104.22 849.71 99.07C844.8 93.92 842.38 87.46 842.38 79.59C842.38 73.08 844.18 67.35 847.82 62.49C851.46 57.58 856.52 53.79 862.93 51.07C869.34 48.3 876.73 46.89 884.99 46.89C896.94 46.89 906.32 49.46 913.17 54.66C920.07 59.71 924.59 66.61 926.82 75.26L926.79 75.28Z" fill="#1C1C1D"/>
<path d="M827.68 102.35C827.68 92.34 826.32 83.84 823.65 76.84C820.98 69.8 817.28 64.06 812.67 59.64C808 55.22 802.76 52.01 796.93 49.92C791.1 47.83 785.03 46.81 778.81 46.81C768.56 46.81 759.57 49.24 751.94 54.05C744.31 58.91 738.39 65.61 734.11 74.26C729.88 82.91 727.79 92.87 727.79 104.19C727.79 115.51 729.88 125.62 734.11 134.17C738.38 142.67 744.41 149.23 752.23 153.94C760.1 158.6 769.48 160.94 780.36 160.94C788.42 160.94 795.57 159.73 801.83 157.3C808.15 154.82 813.39 151.32 817.57 146.85C821.8 142.33 824.71 137.08 826.36 131.11L806 127.47C804.69 130.92 802.84 133.83 800.36 136.17C797.93 138.5 795.02 140.3 791.66 141.47C788.31 142.64 784.62 143.22 780.53 143.22C774.26 143.22 768.77 141.86 764.06 139.19C759.35 136.47 755.7 132.49 753.08 127.34C750.65 122.53 749.39 116.75 749.19 110H827.7V102.37H827.65L827.68 102.35ZM749.22 93.89C749.46 89.13 750.68 84.71 752.77 80.58C755.2 75.82 758.65 71.98 763.12 69.07C767.64 66.11 772.88 64.6 778.96 64.6C784.5 64.6 789.36 65.86 793.49 68.44C797.67 70.97 800.88 74.46 803.21 78.84C805.49 83.21 806.66 88.22 806.66 93.85H749.23V93.9L749.22 93.89Z" fill="#1C1C1D"/>
<path d="M632.23 200.14V181.53H643.89C646.95 181.38 649.62 180.22 651.95 178.08C654.33 175.94 656.47 172.4 658.26 167.49L660.93 160.15L620.56 48.31H643.59L671.57 134.01H672.74L700.72 48.31H723.8L678.23 173.46C676.14 179.19 673.42 184.1 670.17 188.03C666.92 192.06 663.03 195.07 658.51 197.07C654.28 198.96 649.43 199.99 643.89 200.08H632.23V200.13V200.14Z" fill="#1C1C1D"/>
</g>
<defs>
<clipPath id="clip0_5_2">
<rect width="929" height="201" fill="white"/>
</clipPath>
</defs>
</svg>
