<?xml version="1.0" encoding="utf-8"?>
<!-- Generator: Adobe Illustrator 28.3.0, SVG Export Plug-In . SVG Version: 6.00 Build 0)  -->
<svg version="1.1" id="Layer_2_00000077283926822086639210000004296081862649399941_"
	 xmlns="http://www.w3.org/2000/svg" xmlns:xlink="http://www.w3.org/1999/xlink" x="0px" y="0px" viewBox="0 0 540.6 221.7"
	 style="enable-background:new 0 0 540.6 221.7;" xml:space="preserve">
<style type="text/css">
	.st0{fill:url(#SVGID_1_);}
	.st1{fill:#12113A;}
</style>
<g id="Layer_12_00000016071858360229911440000017595207058571988151_">
	<g>
		
			<linearGradient id="SVGID_1_" gradientUnits="userSpaceOnUse" x1="112.4093" y1="38.0282" x2="-12.2507" y2="211.5182" gradientTransform="matrix(1 0 0 -1 0 222)">
			<stop  offset="3.000000e-02" style="stop-color:#FF5129"/>
			<stop  offset="0.11" style="stop-color:#F7333F"/>
			<stop  offset="0.2" style="stop-color:#EF1755"/>
			<stop  offset="0.28" style="stop-color:#EA0663"/>
			<stop  offset="0.35" style="stop-color:#E90068"/>
			<stop  offset="0.44" style="stop-color:#CE0179"/>
			<stop  offset="0.63" style="stop-color:#8B06A4"/>
			<stop  offset="0.91" style="stop-color:#200DEA"/>
			<stop  offset="0.99" style="stop-color:#0010FF"/>
		</linearGradient>
		<path class="st0" d="M113.2,0H6.5C5.7,0,5,0.7,5,1.5v218.7c0,0.8,0.7,1.5,1.5,1.5h52.9c0.8,0,1.5-0.7,1.5-1.5v-52.9
			c0-0.8,0.7-1.5,1.5-1.5h52.9c0.8,0,1.5-0.7,1.5-1.5v-52.9c0-0.8-0.7-1.5-1.5-1.5H10.1c-1.1,0-1.7-1.4-0.9-2.1L114.3,2.5
			C115.2,1.6,114.6,0,113.2,0L113.2,0z"/>
		<path class="st1" d="M211.2,145.1h-23.3v19.2c0,0.8-0.6,1.5-1.5,1.5h-7.8c-0.8,0-1.5-0.6-1.5-1.5v-54.6h37.6
			c0.8,0,1.5,0.7,1.5,1.5v5.7c0,0.8-0.6,1.5-1.5,1.5h-26.9v18.3h23.3c0.8,0,1.5,0.6,1.5,1.5v5.6C212.7,144.5,212,145.1,211.2,145.1
			L211.2,145.1z M276.9,109.6h-7.7c-0.8,0-1.5,0.7-1.5,1.5V145c0,8.7-4.1,13-12.3,13c-4,0-7.1-1.1-9.2-3.2s-3.1-5.3-3.1-9.4v-34.3
			c0-0.8-0.6-1.5-1.5-1.5h-7.7c-0.8,0-1.5,0.7-1.5,1.5v34.2c0,6.6,2.1,11.9,6.2,15.6c4.1,3.7,9.7,5.6,16.8,5.6
			c7,0,12.5-1.9,16.7-5.7c4.2-3.8,6.3-9,6.3-15.5v-34.2C278.3,110.3,277.7,109.7,276.9,109.6L276.9,109.6L276.9,109.6z M342.7,116.9
			v-5.7c0-0.8-0.6-1.5-1.5-1.5h-45.9c-0.8,0-1.5,0.7-1.5,1.5v5.7c0,0.8,0.6,1.5,1.5,1.5H313v46c0,0.8,0.6,1.5,1.5,1.5h7.7
			c0.8,0,1.5-0.6,1.5-1.5v-46h17.7C342.1,118.3,342.7,117.7,342.7,116.9L342.7,116.9z M402.9,109.6h-7.7c-0.8,0-1.5,0.7-1.5,1.5V145
			c0,8.7-4.1,13-12.3,13c-4,0-7.1-1.1-9.2-3.2s-3.1-5.3-3.1-9.4v-34.3c0-0.8-0.6-1.5-1.5-1.5h-7.7c-0.8,0-1.5,0.7-1.5,1.5v34.2
			c0,6.6,2.1,11.9,6.2,15.6c4.1,3.7,9.7,5.6,16.8,5.6s12.5-1.9,16.7-5.7c4.2-3.8,6.3-9,6.3-15.5v-34.2
			C404.4,110.3,403.7,109.7,402.9,109.6L402.9,109.6L402.9,109.6z M467.9,109.6h-7.7c-0.8,0-1.5,0.7-1.5,1.5V145
			c0,8.7-4.1,13-12.3,13c-4,0-7.1-1.1-9.2-3.2c-2.1-2.2-3.1-5.3-3.1-9.4v-34.3c0-0.8-0.6-1.5-1.5-1.5h-7.7c-0.8,0-1.5,0.7-1.5,1.5
			v34.2c0,6.6,2.1,11.9,6.2,15.6c4.1,3.7,9.7,5.6,16.8,5.6s12.5-1.9,16.7-5.7c4.2-3.8,6.3-9,6.3-15.5v-34.2
			C469.3,110.3,468.7,109.7,467.9,109.6L467.9,109.6L467.9,109.6z M523.8,164.9c0.3,0.4,0.8,0.8,1.3,0.8h10.5v-0.5L521.9,145
			c3.6-1.5,6.3-3.6,8.3-6.4c2-2.8,3-6.2,3-10.3c0-6.1-1.9-10.6-5.8-13.8c-3.8-3.2-9.3-4.8-16.4-4.8h-20.1c-0.8,0-1.5,0.7-1.5,1.5
			v53.2c0,0.8,0.6,1.5,1.5,1.5h7.8c0.8,0,1.5-0.6,1.5-1.5v-16.8h11.9L523.8,164.9L523.8,164.9z M499.9,138.9v-20.6h11.3
			c3.7,0.1,6.5,1,8.4,2.8c1.9,1.8,2.8,4.3,2.8,7.6c0,3.3-1,5.7-3,7.5c-2,1.8-4.8,2.7-8.4,2.7H499.9z"/>
	</g>
</g>
</svg>
