<svg width="62" height="16" viewBox="0 0 62 16" fill="none" xmlns="http://www.w3.org/2000/svg">
<path d="M32.0856 0H28.8285V16H32.0856V0Z" fill="#00D991"/>
<path d="M0.333527 0.0177002H3.79104V7.19527L10.2551 0.0177002H14.4475L8.51799 6.59714L14.8317 16.0011H10.6894L6.07935 9.2555L3.79104 11.7976V16.0011H0.333527V0.0177002Z" fill="#00D991"/>
<path fill-rule="evenodd" clip-rule="evenodd" d="M27.5759 15.8504H25.9223C24.4357 15.8504 23.7008 15.2024 23.7342 13.9231C23.2999 14.5877 22.7654 15.1027 22.1474 15.4516C21.5127 15.8006 20.7611 15.9833 19.8591 15.9833C18.5396 15.9833 17.4706 15.6842 16.6521 15.0861C15.8504 14.4714 15.4495 13.624 15.4495 12.5274C15.4495 11.2813 15.9172 10.3177 16.8359 9.65309C17.7712 8.97189 19.1242 8.62298 20.8947 8.62298H23.2498V8.05808C23.2498 7.52641 23.0494 7.11104 22.6485 6.79536C22.2476 6.47968 21.7131 6.31353 21.0283 6.31353C20.427 6.31353 19.9426 6.44645 19.5585 6.69567C19.1743 6.96151 18.9404 7.31042 18.8736 7.7424H15.7168C15.817 6.54614 16.3682 5.61571 17.337 4.95112C18.3057 4.28653 19.5919 3.93762 21.1953 3.93762C22.8656 3.93762 24.1685 4.30315 25.0704 5.03419C25.9891 5.76524 26.4568 6.82859 26.4568 8.20761V12.3447C26.4568 12.6271 26.5236 12.8265 26.6405 12.9428C26.7574 13.0425 26.9579 13.109 27.2251 13.109H27.5759V15.8504ZM20.8613 10.7663C20.1932 10.7663 19.6587 10.8992 19.2745 11.1817C18.907 11.4475 18.7233 11.813 18.7233 12.2948C18.7233 12.7102 18.8736 13.0259 19.191 13.2751C19.5083 13.5243 19.9426 13.6406 20.4771 13.6406C21.329 13.6406 21.9971 13.408 22.4815 12.9262C22.9659 12.4444 23.2331 11.7964 23.2498 10.9823V10.7663H20.8613Z" fill="#00D991"/>
<path d="M36.4116 11.9459C36.4617 12.461 36.7123 12.8764 37.18 13.2087C37.6476 13.5243 38.2322 13.6905 38.9505 13.6905C39.6353 13.6905 40.1865 13.5908 40.5874 13.3748C40.9882 13.1422 41.1887 12.8265 41.1887 12.4112C41.1887 12.1121 41.0885 11.8795 40.9047 11.7299C40.721 11.5804 40.4537 11.4641 40.1197 11.4143C39.7856 11.3312 39.2344 11.2481 38.4661 11.165C37.4138 11.0321 36.5453 10.8494 35.8604 10.6334C35.1756 10.4174 34.6077 10.0851 34.2068 9.61988C33.7893 9.15466 33.5888 8.55653 33.5888 7.79226C33.5888 7.02798 33.7893 6.36339 34.2068 5.78187C34.6411 5.18374 35.2424 4.73514 36.0108 4.40285C36.7791 4.08717 37.6644 3.92102 38.6665 3.92102C40.2867 3.93764 41.5728 4.28654 42.5583 4.95113C43.5605 5.61572 44.095 6.54615 44.1785 7.74241H41.0885C41.0384 7.29381 40.8045 6.9449 40.3702 6.66245C39.9527 6.38 39.4182 6.23047 38.75 6.23047C38.132 6.23047 37.6309 6.34677 37.2468 6.57938C36.8793 6.81199 36.6956 7.11105 36.6956 7.49319C36.6956 7.77564 36.7958 7.97502 36.9962 8.10793C37.1967 8.24085 37.4639 8.34054 37.7813 8.407C38.0986 8.47346 38.6498 8.53992 39.4015 8.60638C41.0049 8.78914 42.2243 9.13805 43.0594 9.63649C43.928 10.1183 44.3455 10.9657 44.3455 12.1785C44.3455 12.9428 44.1117 13.6074 43.6607 14.1889C43.2097 14.7704 42.5917 15.219 41.7733 15.5347C40.9715 15.8338 40.0362 15.9999 38.9839 15.9999C37.347 15.9999 35.9941 15.6344 34.9752 14.92C33.9396 14.1889 33.4051 13.192 33.3383 11.9459H36.4116Z" fill="#00D991"/>
<path d="M55.804 5.38318C54.9021 4.53583 53.7663 4.10384 52.3632 4.10384C50.9101 4.10384 49.7409 4.63551 48.8556 5.69886V0H45.5985V16H48.8556V9.96885C48.8556 8.95535 49.0727 8.17445 49.5404 7.60955C50.0081 7.04465 50.6595 6.7622 51.4947 6.7622C52.2964 6.7622 52.8977 7.02804 53.2986 7.54309C53.6995 8.04154 53.8999 8.77258 53.8999 9.75286V16H57.157V9.61994C57.157 7.64278 56.706 6.23053 55.804 5.38318Z" fill="#00D991"/>
<path d="M58.4094 4.23669H61.6665V15.9833H58.4094V4.23669Z" fill="#00D991"/>
<path d="M61.1825 0.465213C60.8819 0.166147 60.4977 0 60.03 0C59.579 0 59.1782 0.166147 58.8608 0.465213C58.5601 0.764278 58.3931 1.1298 58.3931 1.5784C58.3931 2.027 58.5601 2.40914 58.8608 2.7082C59.1782 3.00727 59.579 3.17342 60.03 3.17342C60.481 3.17342 60.8819 3.02388 61.1825 2.7082C61.4832 2.39252 61.6502 2.027 61.6502 1.5784C61.6502 1.1298 61.4832 0.747664 61.1825 0.465213Z" fill="#00D991"/>
</svg>
