<svg width="1559" height="338" viewBox="0 0 1559 338" fill="none" xmlns="http://www.w3.org/2000/svg">
<g clip-path="url(#clip0_3_22)">
<path d="M771 206.85L795.84 125.305H826.034L776.926 265.257C773.811 273.644 769.348 280.851 763.537 286.879C757.726 292.907 749.427 295.921 738.641 295.921C734.919 295.921 730.399 295.246 725.082 293.898V272.445L730.323 272.67C737.084 272.67 742.23 271.49 745.762 269.132C749.294 266.773 752.086 262.636 754.137 256.721L758.011 246.387L714.713 125.305H745.363L771 206.85ZM587.051 123.095C598.901 123.095 609.175 125.771 617.873 131.125C626.57 136.479 633.217 143.836 637.812 153.196C642.408 162.556 644.706 173.152 644.706 184.983V187.343C644.706 199.174 642.408 209.769 637.812 219.129C633.217 228.489 626.589 235.828 617.93 241.145C609.27 246.461 599.053 249.119 587.279 249.119C575.505 249.119 565.269 246.461 556.571 241.145C547.874 235.828 541.227 228.489 536.632 219.129C532.036 209.769 529.738 199.174 529.738 187.343V184.983C529.738 173.152 532.036 162.556 536.632 153.196C541.227 143.836 547.855 136.479 556.515 131.125C565.174 125.771 575.353 123.095 587.051 123.095ZM1094.08 123.095C1103.5 123.095 1111.82 124.667 1119.03 127.812C1126.25 130.957 1131.89 135.675 1135.95 141.965C1140.02 148.255 1142.05 155.93 1142.05 164.99V218.567C1142.05 229.65 1143.61 238.448 1146.72 244.963V246.873H1117.78C1116.56 244.252 1115.5 240.47 1114.59 235.528C1110.71 239.647 1106.08 242.942 1100.69 245.413C1095.29 247.884 1089.18 249.119 1082.34 249.119C1074.29 249.119 1067.07 247.546 1060.69 244.401C1054.31 241.256 1049.34 236.913 1045.77 231.372C1042.2 225.831 1040.41 219.615 1040.41 212.727C1040.41 199.772 1045.29 189.851 1055.05 182.962C1064.81 176.073 1078.66 172.628 1096.58 172.628H1113.68V164.766C1113.68 158.326 1111.89 153.29 1108.32 149.658C1104.75 146.027 1099.47 144.211 1092.48 144.211C1088.31 144.211 1084.62 144.922 1081.43 146.345C1078.24 147.767 1075.77 149.715 1074.02 152.186C1072.28 154.656 1071.4 157.427 1071.4 160.497H1043.03C1043.03 153.983 1045.14 147.861 1049.36 142.133C1053.57 136.405 1059.57 131.799 1067.36 128.317C1075.14 124.835 1084.05 123.095 1094.08 123.095ZM1426.49 123.095C1438.12 123.095 1447.88 125.603 1455.78 130.62C1463.68 135.637 1469.58 142.658 1473.5 151.681C1477.41 160.704 1479.36 171.168 1479.36 183.074V194.868H1399.03C1399.56 201.083 1401.2 206.587 1403.93 211.379C1406.67 216.171 1410.37 219.916 1415.04 222.611C1419.71 225.307 1425.16 226.655 1431.39 226.655C1444.15 226.655 1454.41 221.712 1462.16 211.828L1477.31 226.318C1472.83 232.833 1466.6 238.262 1458.62 242.604C1450.65 246.947 1441 249.119 1429.68 249.119C1417.68 249.119 1407.2 246.554 1398.24 241.425C1389.27 236.295 1382.4 229.276 1377.61 220.365C1372.83 211.454 1370.43 201.457 1370.43 190.375V185.77C1370.43 173.265 1372.87 162.276 1377.73 152.804C1382.59 143.331 1389.27 136.012 1397.78 130.845C1406.29 125.678 1415.86 123.095 1426.49 123.095ZM1535.73 95.658V125.312H1557.38V145.979H1535.73V212.81C1535.73 217.901 1536.79 221.365 1538.92 223.199C1541.04 225.034 1544.24 225.951 1548.49 225.951C1551.53 225.951 1554.76 225.577 1558.17 224.828V246.395C1552.7 248.192 1546.55 249.09 1539.71 249.09C1529.69 249.09 1521.79 246.357 1516.02 240.891C1510.24 235.424 1507.36 226.701 1507.36 214.72V145.979H1487.3V125.312H1507.36V95.658H1535.73ZM976.05 123.095C989.12 123.095 999.11 126.708 1006.02 133.934C1012.93 141.16 1016.39 152.598 1016.39 168.248V246.873H988.02V168.136C988.02 159.824 986.21 154.039 982.6 150.781C979 147.524 973.58 145.896 966.37 145.896C960.44 145.896 955.48 147.468 951.5 150.613C947.51 153.758 944.68 157.989 943.01 163.306L943.12 165.889V246.873H914.75V168.473C914.75 160.311 912.91 154.507 909.22 151.062C905.54 147.618 900.13 145.896 892.99 145.896C882.125 145.896 874.415 150.276 869.857 159.037V246.873H841.486V125.341H868.148L869.06 138.146C873.237 133.278 878.309 129.553 884.271 126.97C890.23 124.386 897.01 123.095 904.61 123.095C912.36 123.095 919.12 124.611 924.89 127.644C930.66 130.676 935.11 135.338 938.22 141.628C942.4 135.787 947.68 131.238 954.06 127.98C960.44 124.723 967.77 123.095 976.05 123.095ZM1225.98 123.095C1227.57 123.095 1229.38 123.244 1231.39 123.544C1233.4 123.843 1234.9 124.18 1235.89 124.555L1235.66 150.95C1231.86 150.351 1228.1 150.052 1224.38 150.052C1211.7 150.052 1203.19 154.732 1198.86 164.092V246.873H1170.49V125.341H1197.49L1198.29 139.044C1201.4 133.952 1205.28 130.021 1209.91 127.25C1214.54 124.479 1219.9 123.095 1225.98 123.095ZM697.776 246.844H669.404V74.318H697.776V246.844ZM1281.34 173.273L1289.78 162.939L1323.5 125.312H1357.69L1311.99 175.856L1362.47 246.844H1329.66L1293.76 194.951L1281.34 207.419V246.844H1253.09V74.318H1281.34V173.273ZM453.413 83.303C465.947 83.303 476.791 85.53 485.944 89.985C495.098 94.441 502.067 100.619 506.853 108.519C511.638 116.419 514.03 125.423 514.03 135.532C514.03 146.09 511.657 155.188 506.909 162.826C502.162 170.464 495.249 176.305 486.172 180.349C477.094 184.392 466.175 186.414 453.413 186.414H419.23V246.843H389.72V83.303H453.413ZM1098.82 189.918C1088.95 189.918 1081.47 191.678 1076.38 195.197C1071.29 198.717 1068.74 203.659 1068.74 210.023C1068.74 214.965 1070.41 218.99 1073.76 222.098C1077.1 225.205 1081.77 226.759 1087.77 226.759C1093.7 226.759 1098.96 225.374 1103.55 222.604C1108.15 219.833 1111.51 216.5 1113.64 212.606V189.918H1098.82ZM587.013 145.55C580.556 145.55 575.163 147.31 570.833 150.829C566.503 154.349 563.294 159.085 561.205 165.038C559.116 170.991 558.071 177.636 558.071 184.975V187.334C558.071 198.866 560.503 208.3 565.364 215.639C570.226 222.977 577.518 226.646 587.241 226.646C593.698 226.646 599.11 224.906 603.478 221.424C607.845 217.942 611.074 213.243 613.163 207.327C615.252 201.412 616.296 194.747 616.296 187.334V184.975C616.296 177.637 615.252 170.991 613.163 165.038C611.074 159.085 607.827 154.349 603.421 150.829C599.015 147.31 593.545 145.55 587.013 145.55ZM1426.29 145.55C1418.84 145.55 1412.84 148.097 1408.29 153.188C1403.73 158.28 1400.8 165.431 1399.51 174.642H1451.24V172.507C1450.86 164.645 1448.7 158.186 1444.75 153.132C1440.8 148.078 1434.64 145.55 1426.29 145.55ZM419.274 163.054H453.457C464.016 163.054 471.821 160.619 476.872 155.752C481.923 150.885 484.449 144.22 484.449 135.759C484.449 130.517 483.347 125.707 481.145 121.326C478.942 116.946 475.524 113.426 470.891 110.768C466.257 108.109 460.445 106.78 453.457 106.78H419.274V163.054Z" fill="#2E5CFF"/>
<path d="M273.197 337.906L0.823975 261.192V76.958L273.197 0.244019V337.906ZM46.698 247.025L246.837 303.399V190.656L46.698 247.025ZM27.188 225.434L227.274 169.074L27.188 112.714V225.434ZM46.696 91.124L246.837 147.493V34.75L46.696 91.124Z" fill="#2E5CFF"/>
</g>
<defs>
<clipPath id="clip0_3_22">
<rect width="1559" height="338" fill="white"/>
</clipPath>
</defs>
</svg>
