<svg width="465" height="77" viewBox="0 0 465 77" fill="none" xmlns="http://www.w3.org/2000/svg">
<path d="M14.36 52.58H4.95001V48.32H18.58V69.23L14.37 72.67V52.58H14.36ZM23.91 64.87L28.73 60.93V39.79H10.99V3.84H4.95001V44.04H23.91V64.86V64.87ZM34.07 56.56L39.51 52.12V31.27H21.77V3.84H16.33V35.52H34.07V56.55V56.56ZM44.86 47.74L50.9 42.8V22.73H31.94V3.84H27.12V26.99H44.86V47.74ZM50.9 18.47V14.21H41.49V3.84H37.28V18.46H50.91L50.9 18.47Z" fill="#AA8353"/>
<path d="M96.3352 35.2206L95.163 34.9273C90.3942 33.7809 86.2647 32.7677 86.2647 30.1282C86.2647 27.5687 89.7281 26.1823 92.9517 26.1823C97.0812 26.1823 102.33 28.0219 106.645 31.008L107.205 31.3813V22.9828L107.045 22.8762C102.623 20.1034 97.8804 18.6903 92.9784 18.6903C84.613 18.6903 78.3256 23.6227 78.3256 30.1549C78.3256 35.5939 82.4017 39.2465 90.7938 41.2462C99.0526 43.2725 100.704 44.9522 100.704 46.9785C100.704 49.7246 97.1877 50.6845 94.1772 50.6845C89.1953 50.6845 84.16 48.6315 79.6044 44.7389L79.0182 44.259V52.7107L79.1248 52.8174C82.9878 56.2834 87.8632 58.0964 93.6444 58.2031C98.4932 58.3097 102.969 56.79 105.686 54.0972C107.605 52.2042 108.644 49.7246 108.644 46.9785V46.9251C108.644 41.0595 104.621 37.2202 96.3352 35.1673V35.2206ZM151.829 24.5826C148.259 21.0099 143.331 18.7703 137.923 18.7703C127.106 18.7703 118.288 27.6487 118.288 38.5533C118.288 49.458 127.106 58.2564 137.923 58.2564C143.224 58.2564 148.206 56.2034 151.936 52.4441C155.612 48.7381 157.637 43.8057 157.637 38.5533C157.611 33.0877 155.373 28.1552 151.829 24.5826ZM137.923 50.7378C131.369 50.7378 126.254 45.3788 126.254 38.5533C126.254 31.7279 131.369 26.2622 137.923 26.2622C144.476 26.2622 149.618 31.6746 149.618 38.5533C149.618 45.4321 144.61 50.7378 137.923 50.7378ZM193.177 19.1702L182.867 51.2443L172.823 19.1702H164.058L176.766 57.8565H188.968L201.835 19.1702H193.177ZM241.185 26.6355V19.1435H213.211V57.8298H241.185V50.3378H221.23V42.126H240.386V34.8207H221.23V26.6088H241.185V26.6355ZM279.309 43.8324L279.682 43.6724C284.158 41.6994 287.035 37.2469 287.035 32.3678C287.035 25.0891 281.014 19.1435 273.581 19.1435H254.053V57.8298H262.045V44.9255H270.89L278.749 57.8298H287.861L279.309 43.8324ZM273.474 37.8868H262.045V26.4222H273.581C276.831 26.4222 279.309 28.8751 279.309 32.1545C279.309 35.4339 276.805 37.8868 273.474 37.8868ZM327.077 26.6355V19.1435H299.104V57.8298H327.077V50.3378H307.123V42.126H325.905V34.8207H307.123V26.6088H327.077V26.6355ZM340.424 19.1702V57.8565H348.444V19.1702H340.424ZM379.001 36.0738L379.108 42.9525L389.978 42.8992L389.791 43.4058C388.059 47.9116 384.116 50.6045 379.294 50.6045C372.607 50.6045 367.599 45.4054 367.599 38.5267C367.599 31.6479 372.607 26.3956 379.294 26.3956C382.944 26.3956 386.168 28.0219 388.219 30.8481L394.267 26.0223C390.697 21.4098 385.369 18.7703 379.268 18.7703C368.398 18.7703 359.58 27.622 359.58 38.5267C359.58 49.4313 368.398 58.2564 379.268 58.2564C390.137 58.2564 397.89 50.2045 397.89 39.1132V36.0471H378.975L379.001 36.0738ZM434.869 19.1702V49.4047L421.415 19.1702H408.813V57.8565H416.672V26.7688L430.526 57.8565H442.754V19.1702H434.895H434.869Z" fill="#AA8353"/>
</svg>
